<svg xmlns="http://www.w3.org/2000/svg" viewBox="0 0 1920 1080" fill="none">
  <g clip-path="url(#clip0_1_2)">
    <path d="M1391.04 553.546L1316.45 553.546L1316.45 478.961C1316.45 470.399 1309.48 463.426 1300.92 463.426L1195.08 463.426C1186.52 463.426 1179.55 470.399 1179.55 478.961L1179.55 553.546L1104.96 553.546C1096.4 553.546 1089.43 560.519 1089.43 569.081L1089.43 674.919C1089.43 683.482 1096.4 690.455 1104.96 690.455L1179.55 690.455L1179.55 765.039C1179.55 773.601 1186.52 780.574 1195.08 780.574L1300.92 780.574C1309.48 780.574 1316.45 773.601 1316.45 765.039L1316.45 690.455L1391.04 690.455C1399.6 690.455 1406.57 683.482 1406.57 674.919L1406.57 569.081C1406.57 560.519 1399.6 553.546 1391.04 553.546Z" fill="url(#paint0_linear_1_2)"/>
    <path opacity="0.17" d="M1391.04 553.546L1316.45 553.546L1316.45 478.961C1316.45 470.399 1309.48 463.426 1300.92 463.426L1195.08 463.426C1186.52 463.426 1179.55 470.399 1179.55 478.961L1179.55 553.546L1104.96 553.546C1096.4 553.546 1089.43 560.519 1089.43 569.081L1089.43 674.919C1089.43 683.482 1096.4 690.455 1104.96 690.455L1179.55 690.455L1179.55 765.039C1179.55 773.601 1186.52 780.574 1195.08 780.574L1300.92 780.574C1309.48 780.574 1316.45 773.601 1316.45 765.039L1316.45 690.455L1391.04 690.455C1399.6 690.455 1406.57 683.482 1406.57 674.919L1406.57 569.081C1406.57 560.519 1399.6 553.546 1391.04 553.546Z" fill="url(#paint1_linear_1_2)"/>
    <path opacity="0.44" d="M939.501 549.5C939.501 607.038 893.038 653.5 835.5 653.5C777.962 653.5 731.5 607.038 731.5 549.5C731.5 491.962 777.962 445.5 835.5 445.5C893.038 445.5 939.501 491.962 939.501 549.5Z" stroke="#A259FF" stroke-width="15"/>
    <path d="M916.319 635.161C921.501 630.054 929.501 629.962 934.876 634.942C940.16 639.839 940.251 648.054 935.068 653.161L872.697 714.303C867.514 719.41 859.514 719.501 854.139 714.522C848.856 709.625 848.765 701.41 853.947 696.303L916.319 635.161Z" fill="url(#paint2_linear_1_2)"/>
    <path d="M1186.32 240.102C1207.34 240.102 1224.45 223.533 1224.45 203.198C1224.45 182.864 1207.34 166.294 1186.32 166.294C1165.3 166.294 1148.19 182.864 1148.19 203.198C1148.19 223.533 1165.3 240.102 1186.32 240.102Z" fill="url(#paint3_linear_1_2)" fill-opacity="0.8"/>
    <path d="M985.886 307.244C1003.07 307.244 1016.98 293.704 1016.98 277C1016.98 260.296 1003.07 246.756 985.886 246.756C968.698 246.756 954.79 260.296 954.79 277C954.79 293.704 968.698 307.244 985.886 307.244Z" fill="url(#paint4_linear_1_2)" fill-opacity="0.8"/>
    <path d="M906.477 166.294C918.699 166.294 928.59 156.637 928.59 144.699C928.59 132.761 918.699 123.104 906.477 123.104C894.255 123.104 884.364 132.761 884.364 144.699C884.364 156.637 894.255 166.294 906.477 166.294Z" fill="url(#paint5_linear_1_2)" fill-opacity="0.8"/>
    <path d="M681.886 222.411C699.073 222.411 712.981 208.871 712.981 192.168C712.981 175.464 699.073 161.924 681.886 161.924C664.698 161.924 650.79 175.464 650.79 192.168C650.79 208.871 664.698 222.411 681.886 222.411Z" fill="url(#paint6_linear_1_2)" fill-opacity="0.8"/>
    <path d="M619.432 403.801C636.62 403.801 650.528 390.26 650.528 373.557C650.528 356.853 636.62 343.313 619.432 343.313C602.245 343.313 588.337 356.853 588.337 373.557C588.337 390.26 602.245 403.801 619.432 403.801Z" fill="url(#paint7_linear_1_2)" fill-opacity="0.8"/>
    <path d="M730.409 515.234C747.597 515.234 761.505 501.694 761.505 484.99C761.505 468.287 747.597 454.746 730.409 454.746C713.222 454.746 699.314 468.287 699.314 484.99C699.314 501.694 713.222 515.234 730.409 515.234Z" fill="url(#paint8_linear_1_2)" fill-opacity="0.8"/>
    <path d="M833.068 399.43C850.256 399.43 864.164 385.89 864.164 369.186C864.164 352.482 850.256 338.942 833.068 338.942C815.881 338.942 801.972 352.482 801.972 369.186C801.972 385.89 815.881 399.43 833.068 399.43Z" fill="url(#paint9_linear_1_2)" fill-opacity="0.8"/>
  </g>
  <defs>
    <linearGradient id="paint0_linear_1_2" x1="1248" y1="463.426" x2="1248" y2="780.574" gradientUnits="userSpaceOnUse">
      <stop stop-color="#A259FF"/>
      <stop offset="1" stop-color="#FF6250"/>
    </linearGradient>
    <linearGradient id="paint1_linear_1_2" x1="1248" y1="463.426" x2="1248" y2="780.574" gradientUnits="userSpaceOnUse">
      <stop stop-color="#A259FF"/>
      <stop offset="1" stop-color="#FF6250"/>
    </linearGradient>
    <linearGradient id="paint2_linear_1_2" x1="894.42" y1="634.052" x2="894.42" y2="715.652" gradientUnits="userSpaceOnUse">
      <stop stop-color="#A259FF"/>
      <stop offset="1" stop-color="#FF6250"/>
    </linearGradient>
    <linearGradient id="paint3_linear_1_2" x1="1186.32" y1="166.294" x2="1186.32" y2="240.102" gradientUnits="userSpaceOnUse">
      <stop stop-color="#A259FF"/>
      <stop offset="1" stop-color="#FF6250"/>
    </linearGradient>
    <linearGradient id="paint4_linear_1_2" x1="985.886" y1="246.756" x2="985.886" y2="307.244" gradientUnits="userSpaceOnUse">
      <stop stop-color="#A259FF"/>
      <stop offset="1" stop-color="#FF6250"/>
    </linearGradient>
    <linearGradient id="paint5_linear_1_2" x1="906.477" y1="123.104" x2="906.477" y2="166.294" gradientUnits="userSpaceOnUse">
      <stop stop-color="#A259FF"/>
      <stop offset="1" stop-color="#FF6250"/>
    </linearGradient>
    <linearGradient id="paint6_linear_1_2" x1="681.886" y1="161.924" x2="681.886" y2="222.411" gradientUnits="userSpaceOnUse">
      <stop stop-color="#A259FF"/>
      <stop offset="1" stop-color="#FF6250"/>
    </linearGradient>
    <linearGradient id="paint7_linear_1_2" x1="619.432" y1="343.313" x2="619.432" y2="403.801" gradientUnits="userSpaceOnUse">
      <stop stop-color="#A259FF"/>
      <stop offset="1" stop-color="#FF6250"/>
    </linearGradient>
    <linearGradient id="paint8_linear_1_2" x1="730.409" y1="454.746" x2="730.409" y2="515.234" gradientUnits="userSpaceOnUse">
      <stop stop-color="#A259FF"/>
      <stop offset="1" stop-color="#FF6250"/>
    </linearGradient>
    <linearGradient id="paint9_linear_1_2" x1="833.068" y1="338.942" x2="833.068" y2="399.43" gradientUnits="userSpaceOnUse">
      <stop stop-color="#A259FF"/>
      <stop offset="1" stop-color="#FF6250"/>
    </linearGradient>
    <clipPath id="clip0_1_2">
      <rect width="1920" height="1080" fill="white"/>
    </clipPath>
  </defs>
</svg> 